<?xml version="1.0" encoding="utf-8"?>
<!-- Generator: Adobe Illustrator 27.2.0, SVG Export Plug-In . SVG Version: 6.00 Build 0)  -->
<svg version="1.1" id="uuid-b99f0f3a-fc62-4fe9-a600-69ea1d49eee8"
	 xmlns="http://www.w3.org/2000/svg" xmlns:xlink="http://www.w3.org/1999/xlink" x="0px" y="0px" viewBox="0 0 180 66"
	 style="enable-background:new 0 0 180 66;" xml:space="preserve">
<style type="text/css">
	.st0{fill:#595757;}
	.st1{fill:#009FE8;}
	.st2{fill-rule:evenodd;clip-rule:evenodd;fill:#FFFFFF;}
</style>
<g>
	<path class="st0" d="M166.2,37.7v-23H158V10h22v4.7h-8.2v23H166.2L166.2,37.7z M144.7,20.9h4.1V10h5.6v27.7h-5.6V25.6h-4.1
		C144.7,25.6,144.7,20.9,144.7,20.9z M132.4,37.7V10h5.6v10.9h3.6v4.7h-3.6v12.1H132.4z M115.4,27.5v-4.7h12v11
		c-1.2,1.1-2.9,2.1-5.1,3c-2.2,0.9-4.5,1.3-6.7,1.3c-2.9,0-5.4-0.6-7.6-1.8c-2.1-1.2-3.8-3-4.8-5.2c-1.1-2.3-1.6-4.7-1.6-7.4
		c0-2.9,0.6-5.4,1.8-7.7c1.2-2.2,3-4,5.3-5.2c1.8-0.9,4-1.4,6.6-1.4c3.4,0,6.1,0.7,8,2.2c1.9,1.4,3.2,3.4,3.7,6l-5.5,1
		c-0.4-1.4-1.1-2.4-2.2-3.2c-1.1-0.8-2.4-1.2-4-1.2c-2.4,0-4.4,0.8-5.8,2.3c-1.4,1.6-2.2,3.8-2.2,6.9c0,3.3,0.7,5.8,2.2,7.4
		c1.5,1.6,3.4,2.5,5.7,2.5c1.2,0,2.3-0.2,3.5-0.7c1.2-0.5,2.2-1,3-1.7v-3.5L115.4,27.5L115.4,27.5z M91.8,22.9V10h5.6v12.9H91.8z
		 M91.8,37.7V26.2h5.6v11.5H91.8z M86.6,26.2v11.5h-5.2V26.2H86.6z M60,37.7V10h8.3l5,18.9l5-18.9h8.4v12.9h-5.2v-7l-4.3,17.2h-7.7
		l-4.3-17.2v21.8H60L60,37.7z"/>
	<polygon class="st1" points="76.9,34 76,37.7 70.6,37.7 69.7,34 	"/>
</g>
<path class="st1" d="M8.6,7.9h33c4.7,0,8.6,3.8,8.6,8.6v33c0,4.7-3.8,8.6-8.6,8.6h-33c-4.7,0-8.6-3.8-8.6-8.6v-33
	C0,11.8,3.8,7.9,8.6,7.9z"/>
<path class="st2" d="M0,45.5c0,0,1.9-10.7,2.2-11.5s1.7-1.9,4-3.6c2.3-1.7,11.3-7.8,17.1-9.5c0,0,3.3-1.4,3.3,1.4S25.9,28,25.9,28
	s7-2.7,8.9-2.9c1.9-0.2,1.9,1,1.8,1.9c-0.1,0.9-0.7,5.1-0.7,5.1s7.5-2.5,14.3-2.1c0,0-12.6,3.3-21.3,12c-0.9,1-1.6,1.1-1.9,0.5
	c-0.3-0.6-1.3-5.1,4.4-8.7c0,0-2.1,0.4-6,2.8c-3.9,2.4-8.1,5.6-8.7,5.8c-0.6,0.2-1,0.1-1.3-0.2s-1.7-7.7,6.5-11.9c0,0,0.2-0.2-0.2,0
	c-2.3,1.1-7.9,4.5-12.2,7.6C4,41.8,6.4,40,0,45.5"/>
<g>
	<path class="st0" d="M59.9,44.9h4c2.4,0,4,1.3,4,3.4v0c0,2.3-1.9,3.5-4.2,3.5h-2.6v3.8h-1.2C59.9,55.8,59.9,44.9,59.9,44.9z
		 M63.7,50.8c1.8,0,2.9-1,2.9-2.4v0c0-1.5-1.1-2.4-2.8-2.4h-2.7v4.8C61.1,50.8,63.7,50.8,63.7,50.8z"/>
	<path class="st0" d="M87.5,44.9h4.6c1.3,0,2.3,0.4,3,1.1c0.5,0.5,0.8,1.3,0.8,2.1v0c0,1.8-1.2,2.8-2.9,3.2l3.3,4.4h-1.5l-3.1-4.2
		h-3v4.2h-1.2L87.5,44.9L87.5,44.9z M92,50.5c1.6,0,2.7-0.8,2.7-2.2v0c0-1.3-1-2.1-2.7-2.1h-3.3v4.4L92,50.5L92,50.5z"/>
	<path class="st0" d="M116,44.9h1.2v10.8H116V44.9z"/>
	<path class="st0" d="M137.7,44.9h1.1l6.7,8.7v-8.7h1.2v10.8h-1l-6.9-8.9v8.9h-1.2C137.7,55.8,137.7,44.9,137.7,44.9z"/>
	<path class="st0" d="M170,46.1h-3.6v-1.1h8.3v1.1h-3.6v9.7H170V46.1z"/>
</g>
</svg>
